<svg id="Layer_1" data-name="Layer 1" xmlns="http://www.w3.org/2000/svg" viewBox="0 0 300 300"><defs><style>.cls-1{fill:#fff;}</style></defs><title>arrow up</title><path class="cls-1" d="M150,300A150,150,0,1,1,300,150,150,150,0,0,1,150,300Zm65.08-166.62L158.82,77.11h0a11.34,11.34,0,0,0-.9-.81l-.45-.34c-.18-.13-.35-.27-.53-.39s-.37-.22-.55-.33-.33-.21-.5-.3l-.08,0c-.16-.09-.32-.15-.49-.23l-.54-.25-.08,0-.48-.17-.59-.2c-.19-.06-.38-.1-.57-.15s-.4-.11-.61-.15h-.06l-.6-.09-.55-.08a12.64,12.64,0,0,0-2.46,0l-.55.08-.6.09h-.06c-.21,0-.41.1-.61.15s-.38.09-.57.15l-.59.2-.48.17-.08,0-.54.25c-.17.08-.33.14-.49.23l-.08,0c-.17.09-.34.2-.5.3s-.37.21-.55.33-.35.26-.53.39l-.45.34a11.34,11.34,0,0,0-.9.81h0L86,132.33A12.48,12.48,0,0,0,86,150h0a12.48,12.48,0,0,0,17.64,0l33.92-33.92v110a12.47,12.47,0,1,0,24.94,0v-110l35,35a12.48,12.48,0,0,0,17.64,0h0A12.46,12.46,0,0,0,215.08,133.38Z"/></svg>